# xmcd
#
# Track frame offsets:
#	150
#	14884
#	28734
#	40614
#	50101
#	60558
#	75681
#	88628
#	99191
#	113003
#	126639
#	138513
#	149532
#	163959
#	177327
#	187825
#	199504
#	211457
#	223360
#	234354
#	247902
#	260807
#	271463
#	284910
#	297801
#	308303
#	320069
#	332476
#	344048
#	357791
#
# Disc length: 4911 seconds
#
# Revision: 0
# Processed by: cddbd v1.5.2PL0 Copyright (c) Steve Scherf et al.
# Submitted via: audiograbber 1.83.01
#
DISCID=dc132d1e
DTITLE=Various Artist - Sweet Soul Music (1967)
DYEAR=1009
DGENRE=Soul
TTITLE0=Freddie Scott - Are You Lonely For Me
TTITLE1=Cannonball Adderley - Mercy, Mercy, Mercy
TTITLE2=Dyke and The Blazers - Funky Broadway
TTITLE3=The Fascinations - Girls Are Out To Get You
TTITLE4=Arthur Conley - Sweet Soul Music
TTITLE5=Toussaint McCall - Nothing Takes The Place Of You
TTITLE6=Martha Reeves and The Vandellas - Jimmy Mack
TTITLE7=Rodger Collins - She's Looking Good
TTITLE8=O. V. Wright - Eight Men, Four Women
TTITLE9=Otis Redding and Carla Thomas - Tramp
TTITLE10=Marvin Gaye and Tammi Terrell - Ain't No Mountain High Enough
TTITLE11=Aretha Franklin - Respect
TTITLE12=Bettye Swann - Make Me Yours
TTITLE13=J. J. Barnes - Baby Please Come Back Home
TTITLE14=The Bar-Kays - Soul Finger
TTITLE15=Stevie Wonder - I Was Made To Love Her
TTITLE16=Soul Brothers Six - Some Kind Of Wonderful
TTITLE17=Linda Jones - Hypnotized
TTITLE18=Syl Johnson - Come On Sock It To Me
TTITLE19=The Parliaments - (I Wanna) Testify
TTITLE20=James Brown and The Famous Flames - Cold Sweat
TTITLE21=The Esquires - Get On Up
TTITLE22=Jackie Wilson - Higher And Higher
TTITLE23=Laura Lee - Dirty Man
TTITLE24=The Soul Survivors - Expressway To Your Heart
TTITLE25=Sam and Dave - Soul Man
TTITLE26=Gladys Knight and The Pips - I Heard It Through The Grapevine
TTITLE27=Erma Franklin - Piece Of My Heart
TTITLE28=Joe Tex - Skinny Legs And All
TTITLE29=Etta James - Tell Mama
EXTD=
EXTT0=
EXTT1=
EXTT2=
EXTT3=
EXTT4=
EXTT5=
EXTT6=
EXTT7=
EXTT8=
EXTT9=
EXTT10=
EXTT11=
EXTT12=
EXTT13=
EXTT14=
EXTT15=
EXTT16=
EXTT17=
EXTT18=
EXTT19=
EXTT20=
EXTT21=
EXTT22=
EXTT23=
EXTT24=
EXTT25=
EXTT26=
EXTT27=
EXTT28=
EXTT29=
PLAYORDER=
